<?xml version="1.0" encoding="UTF-8"?>
<svg version="1.1" xmlns="http://www.w3.org/2000/svg" width="1024" height="1024">
<path d="M0 0 C337.92 0 675.84 0 1024 0 C1024 337.92 1024 675.84 1024 1024 C686.08 1024 348.16 1024 0 1024 C0 686.08 0 348.16 0 0 Z " fill="#EEEEEE" transform="translate(0,0)"/>
<path d="M0 0 C0.70754299 -0.00029457 1.41508598 -0.00058914 2.14406967 -0.00089264 C25.27546519 -0.00244379 48.20020867 0.47983974 71.1875 3.25 C72.02122131 3.34945923 72.85494263 3.44891846 73.71392822 3.5513916 C98.69998001 6.55826917 123.42794666 10.62605029 148.0534668 15.80212402 C150.20356021 16.2533706 152.35459708 16.6998701 154.50585938 17.14550781 C170.92277718 20.55642243 187.14916356 24.33150114 203.1875 29.25 C205.49334714 29.94448355 207.79934616 30.63846291 210.10546875 31.33203125 C212.48733343 32.05351901 214.86884831 32.77616262 217.25 33.5 C218.37583496 33.841521 219.50166992 34.18304199 220.66162109 34.53491211 C221.7130127 34.85854736 222.7644043 35.18218262 223.84765625 35.515625 C224.78230713 35.80211914 225.71695801 36.08861328 226.67993164 36.38378906 C228.97926912 37.17806902 231.02800725 38.14187477 233.1875 39.25 C233.23320104 71.71792755 233.26855841 104.18584578 233.28963066 136.65379819 C233.29213184 140.49364546 233.29472051 144.33349267 233.29736328 148.17333984 C233.29815021 149.31992639 233.29815021 149.31992639 233.29895304 150.4896763 C233.30763739 162.83964253 233.32339642 175.18958999 233.34180559 187.53954512 C233.36055963 200.22740044 233.37162832 212.91524599 233.37567699 225.6031146 C233.37841067 233.42172115 233.38702046 241.24027463 233.40333293 249.05886483 C233.41523155 255.07095586 233.41639753 261.08300199 233.41371536 267.09510612 C233.41426255 269.54915123 233.41820006 272.00319847 233.42591095 274.45723152 C233.47647066 291.38818035 232.80042877 307.453172 228.5625 323.9375 C228.30235107 324.95368408 228.04220215 325.96986816 227.77416992 327.0168457 C219.5529228 358.00981454 203.65841854 386.6686627 183.1875 411.25 C182.51702637 412.06476807 182.51702637 412.06476807 181.83300781 412.89599609 C170.39116569 426.78848475 158.24570578 440.5447907 144.53515625 452.23828125 C142.68902688 453.82023903 140.87002912 455.42198426 139.05859375 457.04296875 C124.08449225 470.35812583 107.90164242 482.2145483 91.1875 493.25 C89.98649658 494.04374023 89.98649658 494.04374023 88.76123047 494.85351562 C68.30711058 508.29069838 47.03284825 519.95105391 25.1875 530.9375 C24.40719421 531.33167114 23.62688843 531.72584229 22.82293701 532.13195801 C18.54815118 534.28609732 14.25741646 536.39496896 9.92251587 538.42565918 C8.45259003 539.12405041 7.00243393 539.86381868 5.55737305 540.61230469 C2.10345336 542.16775339 0.13139988 542.50063206 -3.57177734 541.51733398 C-6.82087488 540.21858399 -9.88838573 538.72505305 -13 537.125 C-14.14057861 536.56675537 -15.28115723 536.00851074 -16.45629883 535.43334961 C-18.79895792 534.28196694 -21.13520669 533.1174493 -23.46484375 531.93994141 C-26.49358717 530.41099144 -29.53719494 528.92154469 -32.59375 527.44921875 C-58.90369196 514.6886732 -84.38642871 499.78719701 -107.8125 482.25 C-108.81506836 481.50218262 -108.81506836 481.50218262 -109.83789062 480.73925781 C-123.05584254 470.84684157 -135.62417796 460.38887437 -147.8125 449.25 C-148.8408507 448.32649417 -149.86951282 447.40333504 -150.8984375 446.48046875 C-173.3217691 426.24068254 -191.75346126 402.39197821 -206.8125 376.25 C-207.41553955 375.20875977 -207.41553955 375.20875977 -208.03076172 374.14648438 C-214.60368649 362.66487228 -219.4385603 350.71954186 -223.8125 338.25 C-224.42931641 336.50783203 -224.42931641 336.50783203 -225.05859375 334.73046875 C-227.12737863 328.45971614 -228.58991284 322.08208468 -229.9375 315.625 C-230.17581543 314.50822876 -230.17581543 314.50822876 -230.41894531 313.36889648 C-233.82374413 296.15315846 -234.09704004 278.89940873 -234.03955078 261.41918945 C-234.03898532 258.98292038 -234.03930585 256.54665096 -234.04043579 254.11038208 C-234.04094626 248.2327835 -234.03236166 242.35525132 -234.01956047 236.47766785 C-234.00514619 229.62698404 -234.00226004 222.77630907 -233.99998413 215.92561223 C-233.99562752 203.71268269 -233.98237421 191.49978015 -233.96337891 179.28686523 C-233.94496705 167.43660617 -233.93083666 155.5863545 -233.92236328 143.73608398 C-233.92183783 143.00328782 -233.92131239 142.27049166 -233.92077102 141.51548956 C-233.91816058 137.83856606 -233.91563325 134.1616425 -233.91314721 130.48471892 C-233.89247818 100.07312663 -233.85715808 69.66156709 -233.8125 39.25 C-230.11032873 38.00977104 -226.4076456 36.77108316 -222.70450687 35.53374577 C-220.83420585 34.90847423 -218.96429827 34.2820262 -217.0943985 33.65555573 C-209.02708944 30.96106173 -200.96691484 28.39029131 -192.75 26.1875 C-191.57123291 25.86861816 -190.39246582 25.54973633 -189.17797852 25.22119141 C-163.69420275 18.41819925 -138.20084856 12.94257117 -112.13134766 8.92285156 C-109.1539902 8.4630944 -106.18060846 7.98371951 -103.20849609 7.49121094 C-92.75324218 5.77070044 -82.30376674 4.41956164 -71.76025391 3.36962891 C-69.3120028 3.12495031 -66.86501955 2.86965756 -64.41796875 2.61328125 C-42.95375955 0.40380329 -21.56790008 0.00412916 0 0 Z " fill="#002B54" transform="translate(511.8125,249.75)"/>
<path d="M0 0 C5.24883795 -0.22407717 9.71892212 0.46395644 14.6875 2.0625 C15.38157959 2.28365479 16.07565918 2.50480957 16.79077148 2.73266602 C32.18276332 7.89872605 43.43035771 17.12012181 50.9375 31.5 C52 34 52 34 52 36 C52.86496094 36.24878906 53.72992187 36.49757813 54.62109375 36.75390625 C65.64262997 40.81849591 75.31431677 50.27543746 84 58 C84.98226562 58.87205078 84.98226562 58.87205078 85.984375 59.76171875 C112.94542375 85.24632911 124.93509889 121.02540463 126.2890625 157.26953125 C126.78982288 180.89363877 124.34454092 204.78069667 119.62402344 227.91455078 C118.87569835 231.6146026 118.15884145 235.32046469 117.4453125 239.02734375 C116.64020332 243.20918354 115.83504515 247.39096883 115.01831055 251.57055664 C114.77121338 252.83633545 114.52411621 254.10211426 114.26953125 255.40625 C114.04885986 256.53353516 113.82818848 257.66082031 113.60083008 258.82226562 C111.02767367 272.43145041 111.52291522 282.31254326 111 298 C52.26 298 -6.48 298 -67 298 C-61.49141625 268.62088669 -48.26202949 248.24146294 -28 227 C-27.31164062 226.27039063 -26.62328125 225.54078125 -25.9140625 224.7890625 C-13.18310872 211.6424041 2.38603518 200.9555438 17.625 190.9375 C37.78869416 177.63421822 56.45470542 163.41384802 62.55859375 138.7421875 C63.13223561 135.17850087 63.18415805 131.66178482 63.1875 128.0625 C63.19974609 127.37220703 63.21199219 126.68191406 63.22460938 125.97070312 C63.23706114 121.59183186 62.61027921 118.06706884 61 114 C60.84144531 114.90621094 60.68289063 115.81242187 60.51953125 116.74609375 C57.42697951 132.89228928 50.34818735 142.30034726 37.12109375 151.89453125 C28.37053747 157.79759738 16.846846 165.42875497 5.86499023 164.97070312 C5.05992538 164.94157837 4.25486053 164.91245361 3.42539978 164.88244629 C2.56185379 164.84905151 1.6983078 164.81565674 0.80859375 164.78125 C-1.04225597 164.73446929 -2.89317274 164.69028288 -4.74414062 164.6484375 C-7.64646279 164.58094732 -10.5450931 164.50074881 -13.44555664 164.37597656 C-26.83444346 163.54296905 -26.83444346 163.54296905 -38.4609375 169.18359375 C-40.01523626 170.74913434 -41.53441781 172.35111226 -43 174 C-44.10389584 175.01450485 -45.21790793 176.01827201 -46.34765625 177.00390625 C-47.24355469 177.84824219 -48.13945312 178.69257813 -49.0625 179.5625 C-50.07284228 180.48848328 -51.08458065 181.41294541 -52.09765625 182.3359375 C-53.93937438 184.02645132 -55.76229935 185.73785922 -57.55859375 187.4765625 C-61.93620532 191.44092753 -65.12917714 193.53688969 -71.125 193.875 C-77.42187675 193.37956046 -80.49165311 191.20624117 -85 187 C-86.7739155 185.46701929 -88.56101989 183.95017037 -90.34814453 182.43261719 C-92.18450096 180.8682961 -94.00693235 179.28895423 -95.828125 177.70703125 C-97.6357377 176.13784925 -99.40351748 174.7133957 -101.359375 173.32421875 C-103 172 -103 172 -104 169 C-104.36320029 164.94360544 -104.41650378 160.8829407 -104.5 156.8125 C-104.55414063 155.70068359 -104.60828125 154.58886719 -104.6640625 153.44335938 C-104.7584276 147.75112187 -104.61480052 143.93689234 -100.80859375 139.515625 C-99.56770352 138.31346359 -98.29958875 137.13845057 -97 136 C-96.09378906 135.12214844 -95.18757813 134.24429688 -94.25390625 133.33984375 C-93.36574219 132.54707031 -92.47757812 131.75429688 -91.5625 130.9375 C-90.52123848 129.99969285 -89.48092675 129.06083039 -88.44140625 128.12109375 C-87.61406982 127.37448486 -87.61406982 127.37448486 -86.77001953 126.61279297 C-83.47795635 123.61315582 -80.24265009 120.55283454 -77 117.5 C-72.67907234 113.43611161 -68.34888893 109.38507945 -63.96337891 105.39086914 C-62.48771517 104.04577213 -61.01911617 102.69293723 -59.55078125 101.33984375 C-58.02321499 99.93859997 -56.4828908 98.55080383 -54.91796875 97.19140625 C-49.04228145 91.85336354 -46.2748074 85.11373773 -43.09033203 77.95507812 C-34.17792027 57.94854691 -22.51982629 45.39571504 -2 37 C1.05903126 36.04479282 3.82229721 35.45395754 7 35 C6.04139121 22.76700725 3.86310043 11.64827991 0 0 Z " fill="#EEEEED" transform="translate(494,296)"/>
<path d="M0 0 C59.73 0 119.46 0 181 0 C182.65 5.28 184.3 10.56 186 16 C189.98009813 22.58246998 194.65636569 28.05524199 199.88671875 33.67578125 C207.13338727 41.64577713 206 41.16874147 206 54 C129.11 54 52.22 54 -27 54 C-27 40 -27 40 -23.9375 35.5625 C-22.65536439 34.34227839 -21.34256635 33.15339849 -20 32 C-10.28422564 22.79670605 -3.68018821 12.88065875 0 0 Z " fill="#EBEBEB" transform="translate(423,617)"/>
<path d="M0 0 C-2.60241549 6.93977464 -8.03555999 11.79331808 -14.44921875 15.36328125 C-19.57836315 17.69471052 -24.08211619 19.14585123 -29.75 19.0625 C-30.54921875 19.05347656 -31.3484375 19.04445313 -32.171875 19.03515625 C-32.77515625 19.02355469 -33.3784375 19.01195312 -34 19 C-27.77496594 0.13157377 -18.27954228 -2.17798802 0 0 Z " fill="#072A4D" transform="translate(504,377)"/>
<path d="M0 0 C3.44085442 3.44085442 3.94958979 7.1447352 4.23046875 11.91015625 C4.22653268 13.29433934 4.21205224 14.67852908 4.1875 16.0625 C4.18685547 16.75666016 4.18621094 17.45082031 4.18554688 18.16601562 C4.15367563 21.89495089 3.88337649 25.37462288 3 29 C2.01 29.33 1.02 29.66 0 30 C0 25.38 0 20.76 0 16 C-0.99 16.99 -1.98 17.98 -3 19 C-2.68798326 16.95825942 -2.37536431 14.91661087 -2.0625 12.875 C-1.88847656 11.73804688 -1.71445312 10.60109375 -1.53515625 9.4296875 C-1.04410734 6.28267331 -0.52981281 3.14069217 0 0 Z " fill="#132D4A" transform="translate(554,408)"/>
<path d="M0 0 C-3.17352578 1.87626466 -5.28108589 2.17181388 -8.9375 2 C-15.93370966 1.84414384 -22.76717128 2.61213689 -29.70092773 3.46484375 C-37.80509976 4.36455755 -37.80509976 4.36455755 -42 2 C-42 1.67 -42 1.34 -42 1 C-37.66749763 0.49262223 -33.33388373 -0.00457148 -29 -0.5 C-27.77925781 -0.64308594 -26.55851562 -0.78617188 -25.30078125 -0.93359375 C-8.51650706 -2.83883569 -8.51650706 -2.83883569 0 0 Z " fill="#143154" transform="translate(465,254)"/>
<path d="M0 0 C0.66 0.66 1.32 1.32 2 2 C1.34 5.63 0.68 9.26 0 13 C23.76 13.33 47.52 13.66 72 14 C72 14.33 72 14.66 72 15 C47.91 15 23.82 15 -1 15 C-1 1 -1 1 0 0 Z " fill="#E5E4E5" transform="translate(398,654)"/>
<path d="M0 0 C0.33 0 0.66 0 1 0 C2.14192623 8.43954852 2.05992124 16.72776528 1.9609375 25.23046875 C1.91166608 32.21879876 2.21873893 39.05410084 3 46 C2.34 46 1.68 46 1 46 C-1.09650433 42.85524351 -1.23945111 42.26528299 -1.13525391 38.7121582 C-1.11508209 37.85149246 -1.09491028 36.99082672 -1.0741272 36.1040802 C-1.04193085 35.17899155 -1.0097345 34.25390289 -0.9765625 33.30078125 C-0.95153656 32.35059616 -0.92651062 31.40041107 -0.90072632 30.4214325 C-0.81851452 27.38475941 -0.72192921 24.34873552 -0.625 21.3125 C-0.56676167 19.25458386 -0.50945836 17.19664104 -0.453125 15.13867188 C-0.3129338 10.09207412 -0.15984987 5.04601179 0 0 Z " fill="#013563" transform="translate(280,503)"/>
<path d="M0 0 C-0.99 1.65 -1.98 3.3 -3 5 C-3.5676709 4.65074463 -4.1353418 4.30148926 -4.72021484 3.94165039 C-7.5155519 2.78705465 -8.61235887 3.08329276 -11.4765625 3.93359375 C-12.311875 4.17013672 -13.1471875 4.40667969 -14.0078125 4.65039062 C-15.30332031 5.04000977 -15.30332031 5.04000977 -16.625 5.4375 C-18.34453829 5.9424236 -20.06582826 6.44143165 -21.7890625 6.93359375 C-22.54912598 7.16103271 -23.30918945 7.38847168 -24.09228516 7.62280273 C-26 8 -26 8 -28 7 C-22.44972444 4.86286105 -16.88624061 2.9500656 -11.1875 1.25 C-10.43791016 1.01667969 -9.68832031 0.78335937 -8.91601562 0.54296875 C-3.35271172 -1.11757057 -3.35271172 -1.11757057 0 0 Z " fill="#172944" transform="translate(329,275)"/>
<path d="M0 0 C0.763125 0.20625 1.52625 0.4125 2.3125 0.625 C-1.82589715 4.76339715 -7.17788297 4.76404681 -12.75 4.8125 C-16.81907622 4.74612862 -20.70030935 4.51104237 -24.6875 3.625 C-24.6875 3.295 -24.6875 2.965 -24.6875 2.625 C-23.84771606 2.595271 -23.84771606 2.595271 -22.9909668 2.56494141 C-20.45184146 2.46962217 -17.91353112 2.35997247 -15.375 2.25 C-14.49392578 2.2190625 -13.61285156 2.188125 -12.70507812 2.15625 C-11.85751953 2.11757813 -11.00996094 2.07890625 -10.13671875 2.0390625 C-8.96629028 1.99193115 -8.96629028 1.99193115 -7.7722168 1.94384766 C-4.45787829 1.43693513 -3.51473081 -0.49042755 0 0 Z " fill="#DBDCDE" transform="translate(510.6875,456.375)"/>
<path d="M0 0 C8.38011029 -0.15392039 16.64895793 0.31728707 25 1 C23.8828125 2.51171875 23.8828125 2.51171875 22 4 C14.6046192 4.37898766 7.13830635 2.81482365 0 1 C0 0.67 0 0.34 0 0 Z " fill="#0E3258" transform="translate(481,250)"/>
<path d="M0 0 C0 0.66 0 1.32 0 2 C-1.2909136 2.33623796 -2.58276097 2.66889249 -3.875 3 C-4.59429687 3.185625 -5.31359375 3.37125 -6.0546875 3.5625 C-8 4 -8 4 -10 4 C-10.99 5.485 -10.99 5.485 -12 7 C-14 3.25 -14 3.25 -14 1 C-8.83955235 -0.512545 -5.34001821 -1.33500455 0 0 Z " fill="#153558" transform="translate(374,265)"/>
<path d="M0 0 C1.98 0.66 3.96 1.32 6 2 C3.10181338 4.29158942 0.16859456 6.07862366 -3.125 7.75 C-3.99382813 8.19859375 -4.86265625 8.6471875 -5.7578125 9.109375 C-6.49773438 9.40328125 -7.23765625 9.6971875 -8 10 C-8.66 9.67 -9.32 9.34 -10 9 C-7.75 6.5 -7.75 6.5 -5 4 C-3.68 4 -2.36 4 -1 4 C-0.67 2.68 -0.34 1.36 0 0 Z " fill="#052342" transform="translate(540,773)"/>
<path d="M0 0 C0.391875 0.4125 0.78375 0.825 1.1875 1.25 C3.05597404 3.10831601 3.05597404 3.10831601 5.5 5 C9.53846154 8.23076923 9.53846154 8.23076923 11 10 C11 10.99 11 11.98 11 13 C11.66 13.33 12.32 13.66 13 14 C8.78271738 14 7.75056155 12.18382192 4.8125 9.25 C3.91144531 8.36828125 3.01039063 7.4865625 2.08203125 6.578125 C0 4 0 4 0 0 Z " fill="#24384D" transform="translate(348,680)"/>
<path d="M0 0 C5.56890517 0.47986031 10.67067568 1.29915181 16 3 C16 3.99 16 4.98 16 6 C14.41532272 5.71572583 12.8322943 5.42225182 11.25 5.125 C10.36828125 4.96257812 9.4865625 4.80015625 8.578125 4.6328125 C4.94877187 3.74197128 2.64560971 2.64560971 0 0 Z " fill="#0F2D4C" transform="translate(499,294)"/>
<path d="M0 0 C3 3.75 3 3.75 3 6 C2.34 6 1.68 6 1 6 C1.33 10.29 1.66 14.58 2 19 C0 18 0 18 -0.625 16.4375 C-1.48526632 10.84576892 -1.10406582 5.52032911 0 0 Z " fill="#1B304A" transform="translate(606,558)"/>
<path d="M0 0 C0.66 0.33 1.32 0.66 2 1 C0.42825925 2.20280161 -1.15787558 3.38681275 -2.75 4.5625 C-3.63171875 5.22378906 -4.5134375 5.88507813 -5.421875 6.56640625 C-8 8 -8 8 -10.328125 7.71484375 C-11.15570312 7.36099609 -11.15570312 7.36099609 -12 7 C-10.25 5 -10.25 5 -8 3 C-6.68 3 -5.36 3 -4 3 C-3.67 2.34 -3.34 1.68 -3 1 C-2.01 0.67 -1.02 0.34 0 0 Z " fill="#0A2541" transform="translate(524,477)"/>
<path d="M0 0 C0.66 0.99 1.32 1.98 2 3 C1.236875 3.28875 0.47375 3.5775 -0.3125 3.875 C-3.15029308 4.96269013 -3.15029308 4.96269013 -6 7 C-9.1875 7.125 -9.1875 7.125 -12 7 C-8.35140239 3.95950199 -4.2555467 2.03481238 0 0 Z " fill="#E5E4E3" transform="translate(556,770)"/>
<path d="M0 0 C0.33 0.99 0.66 1.98 1 3 C-0.56847344 5.51835268 -2.15634863 7.82918936 -3.9375 10.1875 C-4.41896484 10.84169922 -4.90042969 11.49589844 -5.39648438 12.16992188 C-6.58846384 13.78676531 -7.79306553 15.39428928 -9 17 C-9.33 16.34 -9.66 15.68 -10 15 C-9 12 -9 12 -7.0625 10.125 C-4.44954843 7.43286808 -3 4.80329819 -3 1 C-2.01 0.67 -1.02 0.34 0 0 Z " fill="#162437" transform="translate(711,635)"/>
<path d="M0 0 C3.86107457 2.57404971 3.94319692 4.61020259 5 9 C5.66 9 6.32 9 7 9 C7.66 12.3 8.32 15.6 9 19 C6.33998373 15.45331164 4.64048152 12.37399168 2.8125 8.375 C2.28269531 7.22773438 1.75289062 6.08046875 1.20703125 4.8984375 C0 2 0 2 0 0 Z " fill="#0C1A2F" transform="translate(603,386)"/>
<path d="M0 0 C0.99 0.33 1.98 0.66 3 1 C0.61042731 4.24299151 -1.2047869 6.50902342 -5 8 C-5 5 -5 5 -2.5 2.3125 C-1.675 1.549375 -0.85 0.78625 0 0 Z " fill="#E5E5E5" transform="translate(414,416)"/>
<path d="M0 0 C0.33 0 0.66 0 1 0 C1.33 4.62 1.66 9.24 2 14 C1.67 14 1.34 14 1 14 C0.67 15.65 0.34 17.3 0 19 C-0.33 19 -0.66 19 -1 19 C-1.12086218 12.56744599 -0.82351864 6.38226945 0 0 Z " fill="#06315B" transform="translate(743,532)"/>
<path d="M0 0 C5.94 0 11.88 0 18 0 C17.67 1.65 17.34 3.3 17 5 C16.65324219 4.51917969 16.30648438 4.03835938 15.94921875 3.54296875 C13.04800765 1.24641888 10.45828853 1.47973801 6.8125 1.3125 C5.54019531 1.24675781 4.26789063 1.18101562 2.95703125 1.11328125 C1.98121094 1.07589844 1.00539063 1.03851563 0 1 C0 0.67 0 0.34 0 0 Z " fill="#0E3B66" transform="translate(484,378)"/>
<path d="M0 0 C0.99 0.33 1.98 0.66 3 1 C3.71727778 2.64551962 4.38325228 4.31422289 5 6 C5.66 6.66 6.32 7.32 7 8 C7.625 10.125 7.625 10.125 8 12 C4.72257902 8.89973691 2.06895163 6.02901106 0 2 C0 1.34 0 0.68 0 0 Z " fill="#0D2038" transform="translate(315,640)"/>
<path d="M0 0 C1.65 0 3.3 0 5 0 C6.32 2.31 7.64 4.62 9 7 C5.18315774 5.44499019 2.80804268 2.96404505 0 0 Z " fill="#11253D" transform="translate(386,717)"/>
<path d="M0 0 C0.66 0 1.32 0 2 0 C2.33 3.63 2.66 7.26 3 11 C2.34 11 1.68 11 1 11 C-1.78637633 6.8204355 -0.79562512 4.85331323 0 0 Z " fill="#0F3559" transform="translate(280,538)"/>
<path d="M0 0 C0.99 0.495 0.99 0.495 2 1 C2 1.66 2 2.32 2 3 C2.99 3.33 3.98 3.66 5 4 C5.73046875 5.84765625 5.73046875 5.84765625 6.1875 8.0625 C6.34605469 8.79597656 6.50460937 9.52945313 6.66796875 10.28515625 C6.83232422 11.13400391 6.83232422 11.13400391 7 12 C3.71534104 9.20803989 1.98678042 5.76803183 0 2 C0 1.34 0 0.68 0 0 Z " fill="#142336" transform="translate(305,624)"/>
<path d="M0 0 C0 3.64478912 -0.85802506 5.09303401 -3 8 C-5.109375 8.6484375 -5.109375 8.6484375 -7 9 C-6.02180976 7.68677212 -5.0424189 6.37443848 -4.0625 5.0625 C-3.51722656 4.33160156 -2.97195313 3.60070312 -2.41015625 2.84765625 C-1 1 -1 1 0 0 Z " fill="#E1E1E1" transform="translate(467,348)"/>
<path d="M0 0 C2.31 0 4.62 0 7 0 C6.2575 0.8971875 6.2575 0.8971875 5.5 1.8125 C3.71723582 3.97029994 3.71723582 3.97029994 4 7 C3.34 7 2.68 7 2 7 C1.34 4.69 0.68 2.38 0 0 Z " fill="#E1E2E2" transform="translate(494,296)"/>
<path d="M0 0 C3.3 0.33 6.6 0.66 10 1 C8.515 2.485 8.515 2.485 7 4 C4.16032769 4 1.76264289 3.59732819 -1 3 C-0.67 2.01 -0.34 1.02 0 0 Z " fill="#0B365F" transform="translate(391,260)"/>
<path d="M0 0 C4.87685861 1.35468295 6.48592381 3.71675909 9 8 C5.18284914 6.44486447 2.77292558 4.00400272 0 1 C0 0.67 0 0.34 0 0 Z " fill="#112643" transform="translate(525,304)"/>
<path d="M0 0 C0.99 0 1.98 0 3 0 C3 2.97 3 5.94 3 9 C2.01 8.34 1.02 7.68 0 7 C-0.1875 3.375 -0.1875 3.375 0 0 Z " fill="#07315B" transform="translate(605,617)"/>
<path d="M0 0 C0.33 0 0.66 0 1 0 C1 1.98 1 3.96 1 6 C0.34 6 -0.32 6 -1 6 C-1.33 7.32 -1.66 8.64 -2 10 C-2.66 10 -3.32 10 -4 10 C-2.8905928 6.51329166 -1.73662334 3.22515763 0 0 Z " fill="#E1E1E2" transform="translate(438,559)"/>
<path d="M0 0 C0.66 0 1.32 0 2 0 C1.65120368 3.25543229 0.97866739 4.01873107 -1.5625 6.25 C-2.366875 6.8275 -3.17125 7.405 -4 8 C-4.66 7.67 -5.32 7.34 -6 7 C-4.07423885 4.56070254 -2.19909405 2.19909405 0 0 Z " fill="#133455" transform="translate(462,460)"/>
<path d="M0 0 C0.33 1.32 0.66 2.64 1 4 C2.65 4 4.3 4 6 4 C3.42786866 5.61949011 2.32330841 6.04408751 -0.75 5.625 C-1.4925 5.41875 -2.235 5.2125 -3 5 C-2 3 -2 3 0 0 Z " fill="#0D3A65" transform="translate(474,389)"/>
<path d="M0 0 C1.875 0.5625 1.875 0.5625 4 2 C5.25 5.625 5.25 5.625 6 9 C0.42857143 3.85714286 0.42857143 3.85714286 0 0 Z " fill="#0F1F34" transform="translate(610,634)"/>
<path d="M0 0 C0 3 0 3 -1.75 5.25 C-4 7 -4 7 -6.25 6.75 C-6.8275 6.5025 -7.405 6.255 -8 6 C-6.02696226 4.02696226 -4.45708131 3.22854066 -2 2 C-1.34 1.34 -0.68 0.68 0 0 Z " fill="#0D3459" transform="translate(452,470)"/>
<path d="M0 0 C-2.35953094 2.35953094 -3.77895617 2.49141413 -7 3 C-7.33 2.01 -7.66 1.02 -8 0 C-4.71023192 -1.09658936 -3.28696233 -0.79953138 0 0 Z " fill="#E5E5E4" transform="translate(513,457)"/>
<path d="M0 0 C0.66 0 1.32 0 2 0 C2.33 0.66 2.66 1.32 3 2 C3.99 2.33 4.98 2.66 6 3 C6.33 4.98 6.66 6.96 7 9 C4.03595495 6.19195732 1.55500981 3.81684226 0 0 Z " fill="#152234" transform="translate(535,313)"/>
<path d="M0 0 C3.34373475 0.55728913 6.03312999 1.35173889 9 3 C8.67 3.99 8.34 4.98 8 6 C5.19637616 4.13091744 2.61514317 2.12038635 0 0 Z " fill="#11375F" transform="translate(488,779)"/>
<path d="M0 0 C2.78637633 4.1795645 1.79562512 6.14668677 1 11 C0.67 11 0.34 11 0 11 C0.020625 10.236875 0.04125 9.47375 0.0625 8.6875 C0.12942841 5.89814214 0.12942841 5.89814214 -1 3 C-0.67 2.01 -0.34 1.02 0 0 Z " fill="#DEDEDF" transform="translate(430,578)"/>
<path d="M0 0 C0.99 0 1.98 0 3 0 C1.25 5.75 1.25 5.75 -1 8 C-1.125 2.25 -1.125 2.25 0 0 Z " fill="#061E3A" transform="translate(435,559)"/>
<path d="M0 0 C0.66 0.33 1.32 0.66 2 1 C0.25 3.0625 0.25 3.0625 -2 5 C-4.25 4.75 -4.25 4.75 -6 4 C-4.02 2.68 -2.04 1.36 0 0 Z " fill="#11233A" transform="translate(528,449)"/>
<path d="M0 0 C0.99 0.33 1.98 0.66 3 1 C1.35 2.65 -0.3 4.3 -2 6 C-2.33 5.01 -2.66 4.02 -3 3 C-2.01 2.01 -1.02 1.02 0 0 Z " fill="#203750" transform="translate(402,424)"/>
<path d="M0 0 C-1 1.5 -1 1.5 -3 3 C-5.71846235 3.27345479 -8.25677199 3.13491285 -11 3 C-7.72430636 -0.27569364 -4.48909309 -0.12469703 0 0 Z " fill="#0A1C3A" transform="translate(361,267)"/>
</svg>
